<svg baseProfile="full" height="312px" preserveAspectRatio="xMidYMid meet" style="font-family: times, serif; font-weight: normal; font-style: normal; font-size: 16px" version="1.1" viewBox="0,0,512.0,312.0" width="512px" xmlns="http://www.w3.org/2000/svg" xmlns:ev="http://www.w3.org/2001/xml-events" xmlns:xlink="http://www.w3.org/1999/xlink"><defs /><svg width="100%" x="0" y="0px"><defs /><text text-anchor="middle" x="50%" y="16px">[julius [isV [a [[[gray cat] [inP texas]] [fond [of john]]]]]]</text></svg><svg width="12.6984%" x="0%" y="48px"><defs /><svg width="100%" x="0" y="0px"><defs /><text text-anchor="middle" x="50%" y="16px">julius</text></svg></svg><line stroke="black" x1="50%" x2="6.34921%" y1="20px" y2="48px" /><svg width="87.3016%" x="12.6984%" y="48px"><defs /><svg width="100%" x="0" y="0px"><defs /><text text-anchor="middle" x="50%" y="16px">[isV [a [[[gray cat] [inP texas]] [fond [of john]]]]]</text></svg><svg width="9.25926%" x="0%" y="48px"><defs /><svg width="100%" x="0" y="0px"><defs /><text text-anchor="middle" x="50%" y="16px">isV</text></svg></svg><line stroke="black" x1="50%" x2="4.62963%" y1="20px" y2="48px" /><svg width="90.7407%" x="9.25926%" y="48px"><defs /><svg width="100%" x="0" y="0px"><defs /><text text-anchor="middle" x="50%" y="16px">[a [[[gray cat] [inP texas]] [fond [of john]]]]</text></svg><svg width="6.25%" x="0%" y="48px"><defs /><svg width="100%" x="0" y="0px"><defs /><text text-anchor="middle" x="50%" y="16px">a</text></svg></svg><line stroke="black" x1="50%" x2="3.125%" y1="20px" y2="48px" /><svg width="93.75%" x="6.25%" y="48px"><defs /><svg width="100%" x="0" y="0px"><defs /><text text-anchor="middle" x="50%" y="16px">[[[gray cat] [inP texas]] [fond [of john]]]</text></svg><svg width="59.0909%" x="0%" y="48px"><defs /><svg width="100%" x="0" y="0px"><defs /><text text-anchor="middle" x="50%" y="16px">[[gray cat] [inP texas]]</text></svg><svg width="48%" x="0%" y="48px"><defs /><svg width="100%" x="0" y="0px"><defs /><text text-anchor="middle" x="50%" y="16px">[gray cat]</text></svg><svg width="54.5455%" x="0%" y="48px"><defs /><svg width="100%" x="0" y="0px"><defs /><text text-anchor="middle" x="50%" y="16px">gray</text></svg></svg><line stroke="black" x1="50%" x2="27.2727%" y1="20px" y2="48px" /><svg width="45.4545%" x="54.5455%" y="48px"><defs /><svg width="100%" x="0" y="0px"><defs /><text text-anchor="middle" x="50%" y="16px">cat</text></svg></svg><line stroke="black" x1="50%" x2="77.2727%" y1="20px" y2="48px" /></svg><line stroke="black" x1="50%" x2="24%" y1="20px" y2="48px" /><svg width="52%" x="48%" y="48px"><defs /><svg width="100%" x="0" y="0px"><defs /><text text-anchor="middle" x="50%" y="16px">[inP texas]</text></svg><svg width="41.6667%" x="0%" y="48px"><defs /><svg width="100%" x="0" y="0px"><defs /><text text-anchor="middle" x="50%" y="16px">inP</text></svg></svg><line stroke="black" x1="50%" x2="20.8333%" y1="20px" y2="48px" /><svg width="58.3333%" x="41.6667%" y="48px"><defs /><svg width="100%" x="0" y="0px"><defs /><text text-anchor="middle" x="50%" y="16px">texas</text></svg></svg><line stroke="black" x1="50%" x2="70.8333%" y1="20px" y2="48px" /></svg><line stroke="black" x1="50%" x2="74%" y1="20px" y2="48px" /></svg><line stroke="black" x1="50%" x2="29.5455%" y1="20px" y2="48px" /><svg width="40.9091%" x="59.0909%" y="48px"><defs /><svg width="100%" x="0" y="0px"><defs /><text text-anchor="middle" x="50%" y="16px">[fond [of john]]</text></svg><svg width="35.2941%" x="0%" y="48px"><defs /><svg width="100%" x="0" y="0px"><defs /><text text-anchor="middle" x="50%" y="16px">fond</text></svg></svg><line stroke="black" x1="50%" x2="17.6471%" y1="20px" y2="48px" /><svg width="64.7059%" x="35.2941%" y="48px"><defs /><svg width="100%" x="0" y="0px"><defs /><text text-anchor="middle" x="50%" y="16px">[of john]</text></svg><svg width="40%" x="0%" y="48px"><defs /><svg width="100%" x="0" y="0px"><defs /><text text-anchor="middle" x="50%" y="16px">of</text></svg></svg><line stroke="black" x1="50%" x2="20%" y1="20px" y2="48px" /><svg width="60%" x="40%" y="48px"><defs /><svg width="100%" x="0" y="0px"><defs /><text text-anchor="middle" x="50%" y="16px">john</text></svg></svg><line stroke="black" x1="50%" x2="70%" y1="20px" y2="48px" /></svg><line stroke="black" x1="50%" x2="67.6471%" y1="20px" y2="48px" /></svg><line stroke="black" x1="50%" x2="79.5455%" y1="20px" y2="48px" /></svg><line stroke="black" x1="50%" x2="53.125%" y1="20px" y2="48px" /></svg><line stroke="black" x1="50%" x2="54.6296%" y1="20px" y2="48px" /></svg><line stroke="black" x1="50%" x2="56.3492%" y1="20px" y2="48px" /></svg>