<svg baseProfile="full" height="168px" preserveAspectRatio="xMidYMid meet" style="font-family: times, serif; font-weight: normal; font-style: normal; font-size: 16px" version="1.1" viewBox="0,0,224.0,168.0" width="224px" xmlns="http://www.w3.org/2000/svg" xmlns:ev="http://www.w3.org/2001/xml-events" xmlns:xlink="http://www.w3.org/1999/xlink"><defs /><svg width="100%" x="0" y="0px"><defs /><text text-anchor="middle" x="50%" y="16px">[julius [isV [inP texas]]]</text></svg><svg width="29.6296%" x="0%" y="48px"><defs /><svg width="100%" x="0" y="0px"><defs /><text text-anchor="middle" x="50%" y="16px">julius</text></svg></svg><line stroke="black" x1="50%" x2="14.8148%" y1="20px" y2="48px" /><svg width="70.3704%" x="29.6296%" y="48px"><defs /><svg width="100%" x="0" y="0px"><defs /><text text-anchor="middle" x="50%" y="16px">[isV [inP texas]]</text></svg><svg width="27.7778%" x="0%" y="48px"><defs /><svg width="100%" x="0" y="0px"><defs /><text text-anchor="middle" x="50%" y="16px">isV</text></svg></svg><line stroke="black" x1="50%" x2="13.8889%" y1="20px" y2="48px" /><svg width="72.2222%" x="27.7778%" y="48px"><defs /><svg width="100%" x="0" y="0px"><defs /><text text-anchor="middle" x="50%" y="16px">[inP texas]</text></svg><svg width="41.6667%" x="0%" y="48px"><defs /><svg width="100%" x="0" y="0px"><defs /><text text-anchor="middle" x="50%" y="16px">inP</text></svg></svg><line stroke="black" x1="50%" x2="20.8333%" y1="20px" y2="48px" /><svg width="58.3333%" x="41.6667%" y="48px"><defs /><svg width="100%" x="0" y="0px"><defs /><text text-anchor="middle" x="50%" y="16px">texas</text></svg></svg><line stroke="black" x1="50%" x2="70.8333%" y1="20px" y2="48px" /></svg><line stroke="black" x1="50%" x2="63.8889%" y1="20px" y2="48px" /></svg><line stroke="black" x1="50%" x2="64.8148%" y1="20px" y2="48px" /></svg>